<svg viewBox="0 0 512 512" xmlns="http://www.w3.org/2000/svg" xmlns:xlink="http://www.w3.org/1999/xlink"><style>:root&gt;svg{display:none}:root&gt;svg:target{display:block}</style><svg viewBox="0 0 512 512" id="moon" xmlns="http://www.w3.org/2000/svg"><path d="M113.111 148.694c-5.327 0-9.686-5.378-9.686-11.95V99.629c0-6.573 4.358-11.95 9.686-11.95s9.687 5.377 9.687 11.95v37.115c-.001 6.572-4.359 11.95-9.687 11.95z" fill="#5AA096"/><circle cx="269.256" cy="239.324" fill="#598889" r="200.078"/><path d="M412.037 146.381V29.804c0-4.67-3.821-8.492-8.492-8.492-4.67 0-8.491 3.821-8.491 8.492v94.649c-17.683-19.354-39.772-34.606-64.681-44.183V30.797c0-4.67-3.821-8.492-8.492-8.492-4.67 0-8.491 3.821-8.491 8.492v43.955a170.549 170.549 0 00-44.134-5.785c-43.03 0-82.327 15.96-112.313 42.275V28.535c0-4.67-3.821-8.491-8.491-8.491s-8.491 3.821-8.491 8.491v99.869c-25.593 29.805-41.063 68.554-41.063 110.92 0 94.086 76.272 170.358 170.359 170.358 94.086 0 170.357-76.272 170.357-170.358-.001-34.293-10.142-66.214-27.577-92.943z" fill="#466C6F"/><path d="M423.282 491.956H115.229c0-85.065 68.96-154.026 154.027-154.026 85.066 0 154.026 68.961 154.026 154.026z" fill="#FFD800"/><path d="M244.763 366.052c12.653 1.803 24.372-6.992 26.174-19.646a23.088 23.088 0 00-.397-8.646c-.429-.004-.855-.017-1.284-.017a154.002 154.002 0 00-44.342 6.49c.502 10.885 8.666 20.226 19.849 21.819z" fill="#DDBD37"/><circle cx="331.228" cy="386.859" fill="#DDBD37" r="9.069"/><circle cx="224.889" cy="386.859" fill="#DDBD37" r="9.069"/><ellipse cx="248.382" cy="453.967" fill="#DDBD37" rx="18.044" ry="13.296" transform="rotate(-14.999 248.416 454.017)"/><ellipse cx="175.188" cy="428.64" fill="#DDBD37" rx="28.271" ry="20.831" transform="rotate(-14.999 175.218 428.695)"/><path d="M377.454 382.16c-7.107 5.656-10.779 13.554-8.802 20.938 2.979 11.112 17.617 16.845 32.699 12.804a37.619 37.619 0 001.691-.499 154.574 154.574 0 00-25.588-33.243zm.917 52.981c-11.885-8.063-26.055-7.914-31.649.332-2.734 4.03-2.908 9.248-.991 14.472-3.978.961-6.936 4.534-6.936 8.806a9.069 9.069 0 009.068 9.069 9.06 9.06 0 007.869-4.572c.76.608 1.551 1.196 2.379 1.758 11.885 8.063 26.055 7.915 31.649-.332s.497-21.47-11.389-29.533z" fill="#DDBD37"/><path fill="#FF7143" d="M268.857 223.766h68.662v51.342h-68.662z"/><path fill="#DB6423" d="M268.857 223.765h-14v164.296h14V223.766z"/><path d="M361.339 183.872c-5.327 0-9.687-5.378-9.687-11.95v-116.4c0-6.573 4.359-11.95 9.687-11.95 5.327 0 9.687 5.377 9.687 11.95v116.4c-.001 6.572-4.36 11.95-9.687 11.95zM187.48 134.583c-5.327 0-9.686-5.378-9.686-11.95V55.521c0-6.573 4.358-11.95 9.686-11.95s9.687 5.377 9.687 11.95v67.112c0 6.573-4.359 11.95-9.687 11.95z" fill="#5AA096"/><circle cx="459.435" cy="427.403" fill="#66B2B2" r="19.865"/><circle cx="69.234" cy="188.149" fill="#66B2B2" r="19.866"/><circle cx="69.372" cy="148.113" fill="#66B2B2" r="9.348"/><circle cx="185.405" cy="307.273" fill="#66B2B2" r="9.348"/><circle cx="403.096" cy="337.052" fill="#66B2B2" r="9.349"/><circle cx="451.357" cy="153.248" fill="#66B2B2" r="9.349"/><circle cx="431.71" cy="287.752" fill="#66B2B2" r="19.866"/><circle cx="128.791" cy="255.92" fill="#FFF" r="19.866"/><circle cx="94.905" cy="351.417" fill="#66B2B2" r="19.866"/><path fill="#FFD326" d="M164.5 158.386l5.192 10.521 11.611 1.687-8.402 8.19 1.983 11.564-10.384-5.46-10.385 5.46 1.983-11.564-8.401-8.19 11.61-1.687zm295-112l5.192 10.521 11.612 1.687-8.403 8.19 1.984 11.564-10.385-5.46-10.385 5.46 1.984-11.564-8.402-8.19 11.611-1.687zm-410 244.001l5.192 10.52 11.611 1.687-8.402 8.189 1.983 11.565-10.384-5.46-10.385 5.46 1.983-11.565-8.401-8.189 11.61-1.687zm336-61.001l5.192 10.521 11.612 1.687-8.403 8.19 1.984 11.564-10.385-5.46-10.385 5.46 1.984-11.564-8.402-8.19 11.611-1.687z"/></svg></svg>