<?xml version="1.0" ?><!DOCTYPE svg  PUBLIC '-//W3C//DTD SVG 1.1//EN'  'http://www.w3.org/Graphics/SVG/1.1/DTD/svg11.dtd'><svg enable-background="new 0 0 512 512" height="512px" id="moon" version="1.1" viewBox="0 0 512 512" width="512px" xml:space="preserve" xmlns="http://www.w3.org/2000/svg" xmlns:xlink="http://www.w3.org/1999/xlink"><path d="M113.111,148.694L113.111,148.694c-5.327,0-9.686-5.378-9.686-11.95V99.629c0-6.573,4.358-11.95,9.686-11.95  l0,0c5.328,0,9.687,5.377,9.687,11.95v37.115C122.797,143.316,118.439,148.694,113.111,148.694z" fill="#5AA096"/><circle cx="269.256" cy="239.324" fill="#598889" r="200.078"/><path d="M412.037,146.381V29.804c0-4.67-3.821-8.492-8.492-8.492c-4.67,0-8.491,3.821-8.491,8.492v94.649  c-17.683-19.354-39.772-34.606-64.681-44.183V30.797c0-4.67-3.821-8.492-8.492-8.492c-4.67,0-8.491,3.821-8.491,8.492v43.955  c-14.077-3.766-28.869-5.785-44.134-5.785c-43.03,0-82.327,15.96-112.313,42.275V28.535c0-4.67-3.821-8.491-8.491-8.491  s-8.491,3.821-8.491,8.491v99.869c-25.593,29.805-41.063,68.554-41.063,110.92c0,94.086,76.272,170.358,170.359,170.358  c94.086,0,170.357-76.272,170.357-170.358C439.613,205.031,429.472,173.11,412.037,146.381z" fill="#466C6F"/><path d="M423.282,491.956H115.229c0-85.065,68.96-154.026,154.027-154.026  C354.322,337.93,423.282,406.891,423.282,491.956z" fill="#FFD800"/><path d="M244.763,366.052c12.653,1.803,24.372-6.992,26.174-19.646c0.424-2.973,0.261-5.893-0.397-8.646  c-0.429-0.004-0.855-0.017-1.284-0.017c-15.417,0-30.299,2.275-44.342,6.49C225.416,355.118,233.58,364.459,244.763,366.052z" fill="#DDBD37"/><circle cx="331.228" cy="386.859" fill="#DDBD37" r="9.069"/><circle cx="224.889" cy="386.859" fill="#DDBD37" r="9.069"/><ellipse cx="248.382" cy="453.967" fill="#DDBD37" rx="18.044" ry="13.296" transform="matrix(0.9659 -0.2588 0.2588 0.9659 -109.0361 79.7585)"/><ellipse cx="175.188" cy="428.64" fill="#DDBD37" rx="28.271" ry="20.831" transform="matrix(0.9659 -0.2588 0.2588 0.9659 -104.9765 59.9521)"/><path d="M377.454,382.16c-7.107,5.656-10.779,13.554-8.802,20.938c2.979,11.112,17.617,16.845,32.699,12.804  c0.572-0.153,1.135-0.322,1.691-0.499C396.045,403.17,387.415,391.993,377.454,382.16z" fill="#DDBD37"/><path d="M378.371,435.141c-11.885-8.063-26.055-7.914-31.649,0.332c-2.734,4.03-2.908,9.248-0.991,14.472  c-3.978,0.961-6.936,4.534-6.936,8.806c0,5.009,4.061,9.069,9.068,9.069c3.371,0,6.306-1.843,7.869-4.572  c0.76,0.608,1.551,1.196,2.379,1.758c11.885,8.063,26.055,7.915,31.649-0.332S390.257,443.204,378.371,435.141z" fill="#DDBD37"/><rect fill="#FF7143" height="51.342" width="68.662" x="268.857" y="223.766"/><polygon fill="#DB6423" points="268.857,223.765 254.857,223.765 254.857,388.061 268.857,388.061 268.857,275.107 268.857,223.766   "/><path d="M361.339,183.872L361.339,183.872c-5.327,0-9.687-5.378-9.687-11.95v-116.4c0-6.573,4.359-11.95,9.687-11.95  l0,0c5.327,0,9.687,5.377,9.687,11.95v116.4C371.025,178.494,366.666,183.872,361.339,183.872z" fill="#5AA096"/><path d="M187.48,134.583L187.48,134.583c-5.327,0-9.686-5.378-9.686-11.95V55.521c0-6.573,4.358-11.95,9.686-11.95  l0,0c5.328,0,9.687,5.377,9.687,11.95v67.112C197.167,129.206,192.808,134.583,187.48,134.583z" fill="#5AA096"/><circle cx="459.435" cy="427.403" fill="#66B2B2" r="19.865"/><circle cx="69.234" cy="188.149" fill="#66B2B2" r="19.866"/><circle cx="69.372" cy="148.113" fill="#66B2B2" r="9.348"/><circle cx="185.405" cy="307.273" fill="#66B2B2" r="9.348"/><circle cx="403.096" cy="337.052" fill="#66B2B2" r="9.349"/><circle cx="451.357" cy="153.248" fill="#66B2B2" r="9.349"/><circle cx="431.71" cy="287.752" fill="#66B2B2" r="19.866"/><circle cx="128.791" cy="255.92" fill="#FFFFFF" r="19.866"/><circle cx="94.905" cy="351.417" fill="#66B2B2" r="19.866"/><polygon fill="#FFD326" points="164.5,158.386 169.692,168.907 181.303,170.594 172.901,178.784 174.884,190.348 164.5,184.888   154.115,190.348 156.098,178.784 147.697,170.594 159.307,168.907 "/><polygon fill="#FFD326" points="459.5,46.386 464.692,56.907 476.304,58.594 467.901,66.784 469.885,78.348 459.5,72.888   449.115,78.348 451.099,66.784 442.697,58.594 454.308,56.907 "/><polygon fill="#FFD326" points="49.5,290.387 54.692,300.907 66.303,302.594 57.901,310.783 59.884,322.348 49.5,316.888   39.115,322.348 41.098,310.783 32.697,302.594 44.307,300.907 "/><polygon fill="#FFD326" points="385.5,229.386 390.692,239.907 402.304,241.594 393.901,249.784 395.885,261.348 385.5,255.888   375.115,261.348 377.099,249.784 368.697,241.594 380.308,239.907 "/></svg>