<?xml version="1.0" standalone="no"?>
<!DOCTYPE svg PUBLIC "-//W3C//DTD SVG 20010904//EN"
 "http://www.w3.org/TR/2001/REC-SVG-20010904/DTD/svg10.dtd">
<svg version="1.0" xmlns="http://www.w3.org/2000/svg"
 width="700.000000pt" height="700.000000pt" viewBox="0 0 700.000000 700.000000"
 preserveAspectRatio="xMidYMid meet">
<metadata>
Created by potrace 1.11, written by Peter Selinger 2001-2013
</metadata>
<g transform="translate(0.000000,700.000000) scale(0.100000,-0.100000)"
fill="#000000" stroke="none">
<path d="M4198 5835 c-2 -2 -21 -5 -44 -7 -104 -12 -197 -100 -240 -227 -12
-36 -59 -172 -104 -301 -45 -129 -90 -260 -100 -290 -10 -30 -51 -147 -90
-260 -39 -113 -102 -295 -139 -405 -38 -110 -115 -333 -171 -495 -56 -162
-108 -313 -115 -335 -7 -22 -50 -146 -95 -275 -45 -129 -86 -246 -90 -260 -5
-14 -52 -151 -105 -305 -119 -344 -140 -404 -198 -575 -25 -74 -80 -234 -122
-355 -63 -182 -75 -230 -74 -275 8 -226 222 -365 415 -270 104 51 131 102 259
485 13 39 60 176 105 305 45 129 90 260 100 290 10 30 57 168 105 305 47 138
92 268 100 290 7 22 59 173 115 335 56 162 144 417 195 565 247 718 309 897
340 985 258 735 266 764 225 874 -37 99 -126 177 -223 195 -26 4 -48 7 -49 6z"/>
<path d="M2043 5031 c-55 -14 -117 -57 -182 -128 -35 -37 -128 -135 -206 -218
-79 -82 -157 -166 -175 -185 -18 -19 -99 -105 -181 -191 -82 -86 -165 -174
-185 -195 -39 -42 -294 -310 -388 -409 -111 -116 -145 -191 -139 -305 4 -80
48 -159 145 -261 73 -75 329 -345 443 -465 22 -23 101 -107 175 -185 74 -78
152 -161 173 -183 477 -506 458 -491 592 -490 116 0 209 63 259 174 60 134 29
259 -96 391 -35 37 -126 133 -203 214 -77 82 -165 174 -195 205 -30 32 -110
115 -177 186 -66 71 -145 154 -173 184 -29 30 -89 93 -134 140 -44 47 -87 93
-93 101 -15 18 -25 5 205 247 78 82 154 162 169 178 14 16 99 105 187 198 89
93 172 181 186 196 314 332 320 339 341 415 40 140 -31 304 -155 364 -48 24
-144 34 -193 22z"/>
<path d="M4803 5026 c-103 -33 -184 -130 -201 -239 -13 -81 5 -167 47 -230 16
-24 149 -168 301 -326 25 -26 106 -112 180 -190 74 -79 153 -163 175 -186 22
-23 101 -106 175 -185 74 -78 156 -165 183 -192 26 -28 47 -52 47 -53 0 -2
-25 -29 -56 -62 -31 -32 -111 -116 -178 -187 -66 -70 -148 -156 -181 -191 -33
-35 -93 -98 -134 -142 -41 -43 -143 -150 -227 -238 -83 -88 -177 -187 -208
-220 -71 -75 -106 -132 -121 -199 -25 -107 5 -206 85 -288 68 -68 138 -94 226
-84 102 11 124 28 401 322 182 194 195 207 352 373 80 85 164 173 186 196 22
24 104 110 181 191 78 82 156 165 174 184 17 19 59 63 91 97 80 83 112 154
113 249 0 100 -37 171 -147 286 -45 47 -141 148 -212 224 -72 75 -150 158
-175 184 -25 26 -108 114 -185 195 -77 82 -156 165 -175 185 -19 20 -96 101
-170 180 -247 261 -294 307 -340 329 -56 28 -151 35 -207 17z"/>
</g>
</svg>
